<svg width="19" height="18" viewBox="0 0 19 18" fill="none" xmlns="http://www.w3.org/2000/svg">
<g id="Group 1686550962">
<path id="Vector" d="M6.59644 14.6535C6.24956 14.6535 5.96838 14.3723 5.96838 14.0253C5.96838 13.6784 6.24956 13.3972 6.59644 13.3972H12.249C12.5958 13.3972 12.877 13.6784 12.877 14.0253C12.877 14.3723 12.5958 14.6535 12.249 14.6535H6.59644Z" fill="#0D0D0D"/>
<path id="Vector_2" fill-rule="evenodd" clip-rule="evenodd" d="M12.3764 1.3182C10.6851 -0.165437 8.15122 -0.165434 6.45987 1.31821L0.507632 6.53954C-0.524141 7.44462 0.124467 9.13191 1.48715 9.13191C1.62528 9.13191 1.73167 9.25453 1.71302 9.39037C1.47072 11.1546 1.32097 12.3891 1.26984 13.5166C1.1565 16.0158 3.35349 17.7945 5.70546 17.7945H13.1809C15.5217 17.7945 17.7223 16.03 17.6088 13.5361C17.557 12.3981 17.3995 11.1601 17.1435 9.38566C17.1244 9.25255 17.2284 9.13191 17.3638 9.13191C18.7214 9.13191 19.3676 7.45087 18.3396 6.54915L12.3764 1.3182ZM7.28813 2.26276C8.50551 1.19486 10.3308 1.19486 11.5482 2.26276L17.5114 7.49368C17.6596 7.62368 17.5733 7.87555 17.3638 7.87555C16.4622 7.87555 15.772 8.67563 15.9003 9.56504C16.1564 11.3407 16.3053 12.5235 16.354 13.5932C16.4277 15.2135 14.9743 16.5381 13.1809 16.5381H5.70546C3.90705 16.5381 2.45069 15.2047 2.52467 13.5736C2.57292 12.5096 2.71501 11.3265 2.95746 9.56133C3.07961 8.67177 2.38798 7.87555 1.48715 7.87555C1.27254 7.87555 1.18388 7.61743 1.33588 7.4841L7.28813 2.26276Z" fill="#0D0D0D"/>
</g>
</svg>
