<svg width="17" height="18" viewBox="0 0 17 18" fill="none" xmlns="http://www.w3.org/2000/svg">
<g id="Group">
<g id="Group_2">
<path id="Vector" d="M6.10113 14.3846H7.3319C7.3319 15.2343 8.02069 15.9231 8.87036 15.9231C9.72003 15.9231 10.4088 15.2343 10.4088 14.3846H11.6396C11.6396 15.914 10.3998 17.1539 8.87036 17.1539C7.34096 17.1539 6.10113 15.914 6.10113 14.3846ZM16.8704 12.8456V13.1544C16.8704 13.836 16.3194 14.3846 15.6392 14.3846H2.10156C1.42154 14.3846 0.870361 13.8341 0.870361 13.1544V12.8456C0.870361 11.7617 1.67284 10.8648 2.71652 10.7145V6.99978C2.71652 3.60034 5.47126 0.846161 8.87036 0.846161C12.2695 0.846161 15.0242 3.601 15.0242 6.99978V10.7144C16.0693 10.8644 16.8704 11.7606 16.8704 12.8456ZM15.6396 12.8456C15.6396 12.3354 15.2269 11.9231 14.7137 11.9231C14.2052 11.9231 13.7934 11.5082 13.7934 11.0022V6.99978C13.7934 4.28073 11.5897 2.07693 8.87036 2.07693C6.15094 2.07693 3.94728 4.28014 3.94728 6.99978V11.0022C3.94728 11.5104 3.53336 11.9231 3.02705 11.9231C2.51553 11.9231 2.10113 12.3367 2.10113 12.8456V13.154L15.6392 13.1539L15.6396 12.8456Z" fill="#0D0D0D"/>
</g>
</g>
</svg>
